<svg width="297" height="297" viewBox="0 0 297 297" fill="none" xmlns="http://www.w3.org/2000/svg">
<path d="M72.5 159.5L88 154L72.5 173.5V190L68 237L72.5 279L88 289H130.5H179.5L225 283V267V231L230 180.5C234.167 176 243.1 166.6 245.5 165C247.9 163.4 267.167 148.333 276.5 141L284 106L267.5 69.5L253.5 54.5L216.5 45L198.5 32.5L175 11.5H130.5L93.5 32.5L72.5 54.5L31.5 62.5L12.5 95.5L19 130L38 154L55 159.5H72.5Z" fill="black" stroke="black"/>
<path d="M296.033 108.22C296.033 70.253 265.156 39.365 227.203 39.365C225.554 39.365 223.889 39.427 222.216 39.552C205.884 14.997 178.215 0 148.5 0C118.786 0 91.117 15 74.785 39.552C73.112 39.427 71.447 39.365 69.798 39.365C31.844 39.365 0.967041 70.253 0.967041 108.22C0.967041 142.857 26.671 171.588 59.998 176.362V271.519C59.998 285.57 71.428 297 85.478 297H211.522C225.573 297 237.002 285.569 237.002 271.519V176.362C270.33 171.588 296.033 142.856 296.033 108.22ZM211.522 277.399H85.479C82.293 277.399 79.599 274.706 79.599 271.518V176.371C89.201 175.011 98.317 171.649 106.54 166.421C119.153 173.243 133.498 177.072 148.5 177.072C163.502 177.072 177.846 173.243 190.459 166.422C198.684 171.649 207.801 175.011 217.402 176.371V271.518C217.402 274.706 214.709 277.399 211.522 277.399ZM227.203 157.471C220.606 157.471 214.229 156.182 208.303 153.705C220.23 142.771 229.246 128.559 233.773 112.226C235.218 107.01 232.162 101.609 226.946 100.163C221.729 98.718 216.33 101.775 214.883 106.99C206.647 136.713 179.349 157.471 148.5 157.471C117.651 157.471 90.354 136.713 82.117 106.99C80.672 101.774 75.274 98.718 70.054 100.163C64.838 101.608 61.782 107.01 63.227 112.226C67.753 128.559 76.77 142.772 88.697 153.705C82.771 156.182 76.394 157.471 69.798 157.471C42.652 157.471 20.568 135.377 20.568 108.22C20.568 81.062 42.653 58.966 69.798 58.966C72.542 58.966 75.367 59.212 78.195 59.696C82.277 60.392 86.365 58.449 88.395 54.835C100.6 33.102 123.631 19.601 148.499 19.601C173.367 19.601 196.398 33.103 208.605 54.836C210.634 58.45 214.72 60.393 218.805 59.696C221.633 59.212 224.458 58.966 227.201 58.966C254.346 58.966 276.43 81.062 276.43 108.22C276.433 135.377 254.348 157.471 227.203 157.471Z" fill="black"/>
</svg>
