<svg width="224" height="182" viewBox="0 0 224 182" fill="none" xmlns="http://www.w3.org/2000/svg">
<path d="M87.5339 45.5856C86.4864 48.3857 85.6341 51.2144 84.9628 54.0478C73.8592 90.3968 110.036 142.199 111.627 181.429C117.312 166.2 122.997 150.966 128.677 135.737C122.992 150.966 117.307 166.2 111.627 181.429C138.529 152.833 199.813 137.403 215.226 102.654C215.221 102.654 215.216 102.65 215.211 102.65C216.559 100.073 217.763 97.3828 218.806 94.5875C232.338 58.3337 213.916 17.9702 177.668 4.44115C141.419 -9.08795 101.061 9.33181 87.5339 45.5856ZM131.844 53.0716C136.757 39.8997 151.423 33.2042 164.593 38.1234C177.763 43.0379 184.457 57.7051 179.539 70.877C174.625 84.049 159.96 90.7445 146.79 85.8252C133.62 80.906 126.925 66.2435 131.844 53.0716Z" fill="#F28D10" fill-opacity="0.8"/>
<path d="M45.5811 4.44115C9.33241 17.975 -9.0895 58.3337 4.44244 94.5875C5.48519 97.3828 6.68983 100.073 8.03731 102.65C8.03255 102.65 8.02779 102.654 8.02303 102.654C23.4357 137.403 84.7199 152.833 111.622 181.429C105.937 166.2 100.252 150.966 94.5713 135.737C100.256 150.966 105.942 166.2 111.622 181.429C113.207 142.204 149.389 90.3968 138.286 54.0478C137.614 51.2096 136.762 48.3857 135.715 45.5856C122.188 9.33181 81.8345 -9.08795 45.5811 4.44115ZM76.4636 85.8205C63.2935 90.7349 48.6331 84.0442 43.7146 70.8723C38.8008 57.7003 45.4906 43.0379 58.6607 38.1186C71.8308 33.2042 86.4912 39.8949 91.4097 53.0668C96.3235 66.2435 89.6337 80.906 76.4636 85.8205Z" fill="#28BD6B"/>
</svg>
