<svg width="55" height="45" viewBox="0 0 55 45" fill="none" xmlns="http://www.w3.org/2000/svg">
<mask id="path-1-inside-1" fill="white">
<path fill-rule="evenodd" clip-rule="evenodd" d="M53.9992 17.1707C53.9997 17.1138 54 17.057 54 17C54 7.61116 46.3888 0 37 0C27.6112 0 20 7.61116 20 17C20 18.8121 20.2835 20.558 20.8086 22.1957C21.4722 24.8193 22.654 28.4472 23.7383 31.7762C24.7316 34.8256 25.6433 37.6242 26.0001 39.1703C26.9304 43.2019 27.0001 44.6703 27.0001 44.6703C27.0001 44.6703 27.5 43.6703 31 41.1703C31.6684 40.6929 33.0871 39.9416 34.8723 38.9962C39.269 36.6678 45.889 33.162 49.0001 29.6703C54.6519 23.3269 54.0001 17.1703 54.0001 17.1703L53.9992 17.1707ZM44 15.5C44 19.0899 41.0899 22 37.5 22C33.9101 22 31 19.0899 31 15.5C31 11.9101 33.9101 9 37.5 9C41.0899 9 44 11.9101 44 15.5Z"/>
</mask>
<path fill-rule="evenodd" clip-rule="evenodd" d="M53.9992 17.1707C53.9997 17.1138 54 17.057 54 17C54 7.61116 46.3888 0 37 0C27.6112 0 20 7.61116 20 17C20 18.8121 20.2835 20.558 20.8086 22.1957C21.4722 24.8193 22.654 28.4472 23.7383 31.7762C24.7316 34.8256 25.6433 37.6242 26.0001 39.1703C26.9304 43.2019 27.0001 44.6703 27.0001 44.6703C27.0001 44.6703 27.5 43.6703 31 41.1703C31.6684 40.6929 33.0871 39.9416 34.8723 38.9962C39.269 36.6678 45.889 33.162 49.0001 29.6703C54.6519 23.3269 54.0001 17.1703 54.0001 17.1703L53.9992 17.1707ZM44 15.5C44 19.0899 41.0899 22 37.5 22C33.9101 22 31 19.0899 31 15.5C31 11.9101 33.9101 9 37.5 9C41.0899 9 44 11.9101 44 15.5Z" fill="#28BD6B"/>
<path d="M53.9992 17.1707L50.9993 17.1411L50.9543 21.6981L55.1579 19.9379L53.9992 17.1707ZM20.8086 22.1957L23.7171 21.4601L23.694 21.3691L23.6654 21.2798L20.8086 22.1957ZM23.7383 31.7762L20.8859 32.7054L20.8859 32.7054L23.7383 31.7762ZM26.0001 39.1703L28.9232 38.4958L28.9232 38.4958L26.0001 39.1703ZM27.0001 44.6703L24.0034 44.8124L24.5475 56.2846L29.6834 46.0119L27.0001 44.6703ZM31 41.1703L32.7437 43.6115L32.7437 43.6115L31 41.1703ZM34.8723 38.9962L33.4683 36.345L33.4683 36.345L34.8723 38.9962ZM49.0001 29.6703L51.24 31.666L51.24 31.666L49.0001 29.6703ZM54.0001 17.1703L56.9834 16.8544L56.559 12.8463L52.8413 14.4031L54.0001 17.1703ZM56.999 17.2003C56.9997 17.1335 57 17.0667 57 17H51C51 17.0472 50.9998 17.0942 50.9993 17.1411L56.999 17.2003ZM57 17C57 5.9543 48.0457 -3 37 -3V3C44.732 3 51 9.26801 51 17H57ZM37 -3C25.9543 -3 17 5.9543 17 17H23C23 9.26801 29.268 3 37 3V-3ZM17 17C17 19.1267 17.333 21.1815 17.9519 23.1117L23.6654 21.2798C23.2341 19.9345 23 18.4975 23 17H17ZM26.5908 30.847C25.4942 27.4804 24.3502 23.9634 23.7171 21.4601L17.9002 22.9314C18.5942 25.6753 19.8137 29.414 20.8859 32.7054L26.5908 30.847ZM28.9232 38.4958C28.5285 36.7854 27.5595 33.8209 26.5908 30.847L20.8859 32.7054C21.9038 35.8303 22.758 38.463 23.0769 39.8449L28.9232 38.4958ZM27.0001 44.6703C29.9967 44.5282 29.9967 44.5275 29.9966 44.5267C29.9966 44.5265 29.9966 44.5257 29.9965 44.5252C29.9965 44.5242 29.9964 44.5232 29.9964 44.5221C29.9963 44.52 29.9962 44.5177 29.9961 44.5155C29.9958 44.5109 29.9956 44.5059 29.9953 44.5007C29.9947 44.4901 29.994 44.4782 29.9931 44.4648C29.9915 44.4382 29.9892 44.4058 29.9863 44.3676C29.9804 44.2912 29.9715 44.1909 29.9582 44.0647C29.9318 43.8125 29.8877 43.4555 29.8142 42.977C29.6675 42.021 29.4024 40.572 28.9232 38.4958L23.0769 39.8449C23.5281 41.8002 23.763 43.1012 23.8837 43.8873C23.9439 44.2799 23.9754 44.542 23.991 44.6911C23.9989 44.7656 24.0027 44.8115 24.0042 44.8311C24.005 44.8409 24.0051 44.8441 24.0049 44.8409C24.0048 44.8393 24.0046 44.8361 24.0044 44.8313C24.0043 44.829 24.0041 44.8262 24.0039 44.823C24.0039 44.8215 24.0038 44.8198 24.0037 44.818C24.0037 44.8171 24.0036 44.8162 24.0036 44.8153C24.0035 44.8148 24.0035 44.8141 24.0035 44.8139C24.0035 44.8132 24.0034 44.8124 27.0001 44.6703ZM29.2563 38.7291C27.4153 40.0441 26.278 41.0247 25.5662 41.7365C25.2082 42.0946 24.9452 42.3971 24.7498 42.6527C24.6515 42.7812 24.5682 42.9006 24.4973 43.0119C24.4619 43.0677 24.4292 43.1218 24.3993 43.1745C24.3843 43.2008 24.3699 43.2268 24.3562 43.2525C24.3493 43.2654 24.3426 43.2781 24.336 43.2908C24.3327 43.2972 24.3295 43.3035 24.3263 43.3099C24.3247 43.313 24.3231 43.3162 24.3215 43.3193C24.3207 43.3209 24.3195 43.3233 24.3191 43.3241C24.3179 43.3264 24.3167 43.3288 27.0001 44.6703C29.6834 46.0119 29.6822 46.0142 29.681 46.0166C29.6806 46.0174 29.6795 46.0197 29.6787 46.0212C29.6771 46.0243 29.6756 46.0274 29.674 46.0304C29.6709 46.0365 29.6679 46.0425 29.6648 46.0483C29.6588 46.0601 29.6528 46.0714 29.647 46.0823C29.6354 46.104 29.6242 46.1241 29.6138 46.1425C29.5928 46.1793 29.5744 46.2095 29.5594 46.233C29.5296 46.2799 29.5127 46.3016 29.516 46.2973C29.5236 46.2874 29.6044 46.1836 29.8089 45.9791C30.222 45.566 31.0847 44.7965 32.7437 43.6115L29.2563 38.7291ZM33.4683 36.345C31.7999 37.2286 30.1338 38.1023 29.2563 38.7291L32.7437 43.6115C33.203 43.2835 34.3742 42.6547 36.2763 41.6474L33.4683 36.345ZM46.7602 27.6746C45.5064 29.0818 43.383 30.6455 40.8403 32.2181C38.3453 33.7611 35.6783 35.1747 33.4683 36.345L36.2763 41.6474C38.463 40.4894 41.3043 38.9859 43.9963 37.321C46.6405 35.6856 49.3827 33.7505 51.24 31.666L46.7602 27.6746ZM54.0001 17.1703C51.0168 17.4862 51.0166 17.4847 51.0164 17.4833C51.0164 17.4828 51.0163 17.4814 51.0162 17.4805C51.016 17.4787 51.0158 17.477 51.0156 17.4754C51.0153 17.4722 51.015 17.4693 51.0148 17.4668C51.0143 17.4617 51.0139 17.4581 51.0137 17.4558C51.0133 17.4513 51.0135 17.4524 51.0139 17.4587C51.0149 17.4715 51.0171 17.5057 51.0192 17.5598C51.0232 17.6681 51.0263 17.8554 51.016 18.1108C50.9955 18.6224 50.9216 19.4006 50.6978 20.3606C50.2534 22.2675 49.2119 24.9229 46.7602 27.6746L51.24 31.666C54.4401 28.0743 55.8986 24.4798 56.5412 21.7225C56.861 20.3504 56.9774 19.193 57.0112 18.3519C57.0281 17.931 57.0244 17.5878 57.0149 17.3347C57.0102 17.208 57.004 17.1037 56.9981 17.0232C56.9952 16.983 56.9923 16.9487 56.9898 16.9205C56.9885 16.9064 56.9874 16.8938 56.9863 16.8828C56.9857 16.8773 56.9852 16.8722 56.9848 16.8674C56.9845 16.8651 56.9843 16.8628 56.9841 16.8606C56.9839 16.8595 56.9838 16.858 56.9837 16.8575C56.9836 16.8559 56.9834 16.8544 54.0001 17.1703ZM55.1579 19.9379L55.1588 19.9375L52.8413 14.4031L52.8404 14.4035L55.1579 19.9379ZM37.5 25C42.7467 25 47 20.7467 47 15.5H41C41 17.433 39.433 19 37.5 19V25ZM28 15.5C28 20.7467 32.2533 25 37.5 25V19C35.567 19 34 17.433 34 15.5H28ZM37.5 6C32.2533 6 28 10.2533 28 15.5H34C34 13.567 35.567 12 37.5 12V6ZM47 15.5C47 10.2533 42.7467 6 37.5 6V12C39.433 12 41 13.567 41 15.5H47Z" fill="#025700" mask="url(#path-1-inside-1)"/>
<path d="M11.0382 1.10154C2.25999 4.45836 -2.20117 14.4686 1.07581 23.4606C1.32833 24.154 1.62005 24.8213 1.94636 25.4603C1.94521 25.4603 1.94406 25.4615 1.9429 25.4615C5.67534 34.0803 20.5163 37.9072 27.031 45C25.6543 41.2227 24.2775 37.4442 22.902 33.6669C24.2787 37.4442 25.6554 41.2227 27.031 45C27.415 35.2709 36.1771 22.4212 33.4881 13.4055C33.3256 12.7016 33.1192 12.0012 32.8655 11.3066C29.5897 2.31458 19.8175 -2.25409 11.0382 1.10154ZM18.5169 21.2861C15.3275 22.5051 11.7773 20.8456 10.5862 17.5785C9.39624 14.3115 11.0163 10.6747 14.2056 9.4546C17.395 8.23566 20.9452 9.89517 22.1363 13.1622C23.3263 16.4304 21.7062 20.0672 18.5169 21.2861Z" fill="#025700"/>
</svg>
