<svg width="259" height="94" viewBox="0 0 259 94" fill="none" xmlns="http://www.w3.org/2000/svg">
<path d="M20.6522 4.70217C19.8283 5.99799 18.9339 7.861 17.9608 10.2995C16.992 12.7379 16.0065 15.4869 15.0045 18.5423C14.0024 21.5976 13.0335 24.8765 12.0936 28.3748C11.1537 31.8731 10.3007 35.3424 9.53474 38.7786C8.76873 42.219 8.11039 45.5103 7.55141 48.6526C6.99243 51.799 6.64048 54.5769 6.49142 56.9864C6.34236 59.3959 6.38791 61.321 6.62392 62.7617C6.85994 64.2024 7.3858 64.9228 8.20977 64.9228C9.3857 64.9228 10.6941 64.07 12.135 62.3643C13.576 60.6586 15.0583 58.3981 16.5903 55.5746C18.1182 52.7512 19.6626 49.5219 21.2195 45.8746C22.7763 42.2314 24.2752 38.4971 25.7162 34.6759C27.1571 30.8546 28.5235 27.0624 29.8153 23.3033C31.1072 19.5441 32.2417 16.1328 33.2106 13.0733C34.1795 10.018 34.9579 7.476 35.5459 5.44739C36.1339 3.41878 36.4568 2.17262 36.5148 1.70066C36.6307 1.17074 37.1028 0.876818 37.9267 0.818858C38.7507 0.760898 39.7196 0.967894 40.8376 1.43572C41.9555 1.90768 43.0983 2.64046 44.2784 3.63821C45.4543 4.64009 46.4232 5.88623 47.1892 7.38491C47.9511 8.8836 48.4107 10.6638 48.5556 12.7214C48.7005 14.779 48.3031 17.0725 47.3631 19.5979C46.7172 21.3036 45.7607 23.7586 44.4978 26.9589C43.2308 30.1632 41.6905 33.674 39.8687 37.4952C38.0468 41.3164 35.96 45.2122 33.6081 49.1783C31.2563 53.1445 28.7139 56.7628 25.9812 60.0252C23.2484 63.2875 20.321 65.9495 17.2073 68.003C14.0894 70.0606 10.8597 71.0873 7.50587 71.0873C5.33206 71.0873 3.66754 70.251 2.52473 68.5743C1.38193 66.8976 0.628349 64.6661 0.276399 61.8716C-0.0755507 59.0812 -0.092107 55.8769 0.230859 52.2626C0.553824 48.6484 1.08383 44.8852 1.81671 40.977C2.54959 37.0688 3.4481 33.1441 4.50809 29.2069C5.56808 25.2698 6.64047 21.61 7.72531 18.2276C8.81428 14.8494 9.87015 11.881 10.9012 9.32244C11.928 6.76391 12.7975 4.90089 13.5014 3.72513C14.4413 2.1395 15.4682 1.07967 16.5862 0.549747C17.7041 0.0198255 18.673 -0.125078 19.497 0.106763C20.321 0.342743 20.8924 0.885086 21.2153 1.73793C21.5507 2.59905 21.3603 3.58436 20.6522 4.70217Z" fill="#28BD6B"/>
<path d="M67.5692 52.1384C64.6873 53.1403 62.203 53.6661 60.1161 53.7241C58.0293 53.782 56.2198 53.6661 54.6919 53.3721C54.1619 54.9578 53.781 56.473 53.545 57.9137C53.309 59.3545 53.3255 60.6172 53.5905 61.706C53.8555 62.7948 54.369 63.6477 55.135 64.2645C55.8968 64.8814 56.9858 65.1919 58.3978 65.1919C61.5115 65.1919 64.3064 64.6495 66.7741 63.5607C69.2419 62.4719 71.3868 61.1347 73.2128 59.5491C75.0346 57.9634 76.5335 56.3033 77.7094 54.5686C78.8854 52.8339 79.7383 51.3228 80.2683 50.027C80.8563 48.7353 81.5478 47.8535 82.3386 47.3815C83.1336 46.9137 83.8499 46.7937 84.5 47.0297C85.1459 47.2656 85.5889 47.8245 85.8208 48.7064C86.0568 49.5882 85.8788 50.7639 85.2908 52.2336C84.7608 53.7033 83.7754 55.496 82.3345 57.6115C80.8935 59.7271 79.0551 61.7557 76.8233 63.6973C74.5874 65.639 71.9582 67.2826 68.9314 68.6364C65.9046 69.9902 62.5094 70.665 58.7456 70.665C54.3359 70.665 50.866 69.5637 48.3403 67.3571C45.8104 65.1505 44.1666 62.3767 43.4006 59.0233C42.6387 55.674 42.6967 52.0722 43.5786 48.222C44.4606 44.3718 46.0754 40.7699 48.4272 37.4207C50.7791 34.0714 53.8183 31.2935 57.5531 29.0868C61.2879 26.8843 65.6231 25.779 70.5628 25.779C73.7966 25.779 76.2644 26.3213 77.9703 27.4101C79.6762 28.499 80.7776 29.8941 81.2786 31.5998C81.7796 33.3055 81.7631 35.2016 81.2331 37.2882C80.7031 39.3748 79.7797 41.3868 78.4547 43.3285C77.1339 45.2701 75.5315 47.0338 73.6475 48.6194C71.7718 50.1968 69.743 51.3767 67.5692 52.1384ZM65.6272 47.4644C67.859 46.5825 69.7719 45.2743 71.3578 43.5396C72.9436 41.8049 74.0781 40.0579 74.7531 38.2942C75.428 36.5306 75.6184 34.9863 75.3245 33.6657C75.0305 32.3409 74.1485 31.6826 72.6786 31.6826C71.5027 31.6826 70.2108 32.167 68.7989 33.1358C67.387 34.1045 65.9626 35.3838 64.5217 36.9694C63.0808 38.555 61.6978 40.3518 60.377 42.3473C59.0561 44.3469 57.8636 46.4045 56.8036 48.5201C57.9796 48.6981 59.317 48.7271 60.8159 48.607C62.323 48.4952 63.9213 48.1143 65.6272 47.4644Z" fill="#28BD6B"/>
<path d="M107.783 39.354C108.135 37.7684 108.975 36.9735 110.296 36.9735C111.617 36.9735 112.954 37.4165 114.308 38.2983C115.658 39.1802 116.763 40.3559 117.616 41.8256C118.469 43.2954 118.602 44.765 118.014 46.2347C117.778 46.7647 117.484 47.5306 117.132 48.5283C116.78 49.5302 116.366 50.7018 115.898 52.0556C115.426 53.4094 114.867 54.9081 114.221 56.5517C113.575 58.1994 112.867 59.9341 112.105 61.7557C114.809 60.05 117.086 58.1828 118.941 56.1584C120.796 54.1339 122.217 52.0887 123.219 50.0312C123.749 48.9134 124.395 48.164 125.161 47.7831C125.922 47.4022 126.614 47.3277 127.231 47.5637C127.848 47.7997 128.303 48.2841 128.597 49.0169C128.891 49.7538 128.833 50.648 128.419 51.7079C127.947 52.8836 127.243 54.2209 126.303 55.7195C125.363 57.2182 124.101 58.7624 122.511 60.3481C120.921 61.9337 118.983 63.5235 116.689 65.1091C114.395 66.6947 111.662 68.1354 108.486 69.4313C106.959 72.4286 105.253 75.368 103.373 78.2495C101.489 81.1309 99.4061 83.7019 97.1123 85.9665C94.8184 88.2269 92.3506 90.0527 89.7048 91.4354C87.0589 92.814 84.2061 93.5054 81.1503 93.5054C78.6825 93.5054 76.7116 92.9921 75.2417 91.9612C73.7718 90.9304 72.8484 89.6097 72.4634 87.9951C72.0824 86.3763 72.3019 84.5837 73.1259 82.6172C73.9498 80.6466 75.4032 78.6801 77.49 76.7094C79.5769 74.7388 82.3387 72.9172 85.7795 71.2446C89.2203 69.5679 93.3775 68.2307 98.2592 67.2329C98.4373 67.2329 98.6401 67.175 98.8762 67.0549C99.2281 66.3511 99.5676 65.6142 99.8906 64.8524C100.214 64.0906 100.553 63.2958 100.905 62.4719C99.5511 63.8257 98.0687 64.8814 96.4498 65.6473C94.8308 66.4132 93.0255 66.7071 91.0256 66.5291C88.0278 66.2931 85.647 65.4113 83.8831 63.8836C82.1192 62.356 80.9143 60.4309 80.2684 58.1083C79.6224 55.7858 79.5189 53.2438 79.9578 50.4824C80.3967 47.721 81.3366 44.9845 82.7817 42.281C84.2226 39.5776 86.1314 37.0481 88.5123 34.6965C90.8931 32.345 93.717 30.4489 96.9798 29.0082C100.243 27.5674 103.932 26.7311 108.048 26.4952C112.163 26.2592 116.631 26.9092 121.451 28.4368C122.569 28.7887 123.405 29.3642 123.964 30.1549C124.523 30.9498 124.759 31.6992 124.668 32.403C124.581 33.1068 124.138 33.6657 123.347 34.0797C122.552 34.4937 121.364 34.5227 119.774 34.1666C116.126 33.2848 112.776 33.3013 109.72 34.2122C106.665 35.123 103.928 36.5181 101.518 38.4018C99.108 40.2856 97.0791 42.4425 95.4312 44.881C93.7832 47.3194 92.5949 49.671 91.8579 51.9356C91.1208 54.2001 90.889 56.1542 91.154 57.7978C91.419 59.4455 92.2264 60.4143 93.5804 60.7082C94.8722 60.9442 96.1061 60.6337 97.2862 59.7809C98.4621 58.928 99.5469 57.7688 100.549 56.2991C101.547 54.8294 102.474 53.1982 103.327 51.4056C104.18 49.613 104.913 47.8949 105.53 46.2472C106.147 44.6036 106.648 43.1463 107.029 41.8836C107.41 40.6209 107.629 39.8426 107.691 39.5486C107.754 39.47 107.783 39.412 107.783 39.354ZM81.8542 88.6409C83.3821 88.6409 85.411 87.3037 87.9409 84.6292C90.4666 81.9548 93.1125 78.117 95.8784 73.1241C91.5846 74.2999 88.1603 75.753 85.6056 77.4877C83.0467 79.2224 81.2414 80.9281 80.1814 82.6006C79.1214 84.2774 78.7571 85.7015 79.08 86.8773C79.403 88.0531 80.3263 88.6409 81.8542 88.6409Z" fill="#28BD6B"/>
<path d="M175.775 70.6567C174.951 70.6567 174.305 70.4207 173.833 69.9529C173.361 69.4851 173.129 68.8351 173.129 68.0112V45.0838C173.129 44.1441 172.98 43.2332 172.69 42.3514C172.396 41.4696 171.953 40.6747 171.365 39.9709C170.777 39.2671 170.028 38.6917 169.117 38.2528C168.206 37.8098 167.101 37.5904 165.809 37.5904C164.517 37.5904 163.411 37.8098 162.5 38.2528C161.589 38.6917 160.84 39.2671 160.252 39.9709C159.664 40.6747 159.238 41.4696 158.973 42.3514C158.708 43.2332 158.575 44.1441 158.575 45.0838V68.0112C158.575 68.8351 158.339 69.4809 157.871 69.9529C157.399 70.4249 156.753 70.6567 155.929 70.6567H153.283C152.459 70.6567 151.814 70.4207 151.341 69.9529C150.869 69.4851 150.638 68.8351 150.638 68.0112V45.0838C150.638 44.1441 150.489 43.2332 150.199 42.3514C149.905 41.4696 149.462 40.6747 148.878 39.9709C148.29 39.2671 147.54 38.6917 146.629 38.2528C145.719 37.8098 144.646 37.5904 143.412 37.5904C142.178 37.5904 141.089 37.8098 140.149 38.2528C139.21 38.6917 138.444 39.2671 137.856 39.9709C137.268 40.6747 136.825 41.4696 136.531 42.3514C136.237 43.2332 136.092 44.1441 136.092 45.0838V68.0112C136.092 68.8351 135.856 69.4809 135.388 69.9529C134.916 70.4249 134.27 70.6567 133.446 70.6567H130.8C129.976 70.6567 129.33 70.4207 128.858 69.9529C128.386 69.4851 128.154 68.8351 128.154 68.0112V45.0838C128.154 42.9683 128.519 40.9852 129.256 39.1305C129.988 37.2799 131.019 35.6902 132.34 34.3695C133.661 33.0447 135.264 32.0056 137.148 31.2396C139.027 30.4779 141.114 30.0929 143.408 30.0929C145.64 30.0929 147.627 30.5069 149.362 31.3266C151.097 32.1504 152.551 33.0613 153.726 34.059C154.314 34.5889 154.873 34.5889 155.403 34.059C156.521 32.9412 157.946 32.0014 159.681 31.2355C161.416 30.4737 163.457 30.0887 165.809 30.0887C168.103 30.0887 170.189 30.4696 172.069 31.2355C173.949 32.0014 175.552 33.0447 176.876 34.3654C178.201 35.686 179.228 37.2758 179.961 39.1264C180.694 40.9769 181.063 42.96 181.063 45.0797V68.0071C181.063 68.8309 180.827 69.4768 180.359 69.9488C179.887 70.4207 179.241 70.6526 178.417 70.6526H175.775V70.6567Z" fill="#99AEBB"/>
<path d="M214.572 70.6567C213.748 70.6567 213.103 70.3917 212.63 69.8618C212.158 69.3319 211.927 68.744 211.927 68.0981C211.927 67.7462 211.794 67.5268 211.529 67.4357C211.264 67.3488 211.016 67.4523 210.78 67.7462C209.956 68.864 208.738 69.7748 207.119 70.4786C205.5 71.1824 203.546 71.5385 201.256 71.5385C199.198 71.5385 197.319 71.1576 195.613 70.3917C193.907 69.63 192.437 68.5411 191.203 67.1294C189.969 65.7176 188.996 64.0285 188.292 62.0579C187.588 60.0872 187.232 57.9303 187.232 55.5787V47.7293C187.232 45.4357 187.642 43.2622 188.466 41.2046C189.29 39.1471 190.449 37.371 191.948 35.8682C193.447 34.3695 195.223 33.1772 197.281 32.2953C199.339 31.4135 201.604 30.9747 204.072 30.9747H217.21C218.034 30.9747 218.68 31.2107 219.152 31.6785C219.62 32.1504 219.856 32.7963 219.856 33.6201V68.0071C219.856 68.8309 219.62 69.4768 219.152 69.9487C218.68 70.4207 218.034 70.6525 217.21 70.6525H214.572V70.6567ZM211.931 39.354C211.931 38.7662 211.637 38.4722 211.049 38.4722H204.436C201.496 38.4722 199.219 39.383 197.6 41.2046C195.981 43.0262 195.174 45.2039 195.174 47.7293V56.4564C195.174 58.692 195.836 60.5136 197.157 61.9254C198.478 63.3371 200.316 64.0409 202.668 64.0409C204.254 64.0409 205.62 63.7635 206.767 63.2046C207.914 62.6457 208.871 61.8964 209.633 60.9566C210.395 60.0168 210.97 58.9736 211.351 57.8268C211.732 56.68 211.922 55.4918 211.922 54.2539V39.354H211.931Z" fill="#99AEBB"/>
<path d="M228.683 90.9345C227.86 90.9345 227.214 90.6985 226.742 90.2307C226.27 89.7587 226.038 89.1129 226.038 88.289V33.6201C226.038 32.7963 226.274 32.1504 226.742 31.6785C227.209 31.2107 227.86 30.9747 228.683 30.9747H243.234C245.527 30.9747 247.627 31.3556 249.54 32.1215C251.448 32.8874 253.08 33.9306 254.434 35.2513C255.784 36.572 256.827 38.1617 257.564 40.0123C258.297 41.8629 258.665 43.846 258.665 45.9657V55.6657C258.665 57.7813 258.285 59.7643 257.519 61.6191C256.753 63.4697 255.709 65.0594 254.388 66.3801C253.063 67.7049 251.477 68.7482 249.627 69.5099C247.776 70.2758 245.759 70.6567 243.585 70.6567H234.857C234.269 70.6567 233.975 70.9506 233.975 71.5385V88.2932C233.975 89.117 233.739 89.7629 233.271 90.2349C232.799 90.7027 232.153 90.9387 231.329 90.9387H228.683V90.9345ZM250.732 45.9657C250.732 43.7342 249.995 41.925 248.525 40.5422C247.055 39.1636 245.291 38.4722 243.234 38.4722H234.857C234.269 38.4722 233.975 38.7662 233.975 39.3541V62.2815C233.975 62.8693 234.269 63.1633 234.857 63.1633H243.234C245.465 63.1633 247.275 62.4719 248.658 61.0933C250.036 59.7147 250.728 57.9055 250.728 55.6699V45.9657H250.732Z" fill="#99AEBB"/>
</svg>
