<?xml version="1.0" encoding="UTF-8"?><!DOCTYPE svg PUBLIC "-//W3C//DTD SVG 1.1//EN" "http://www.w3.org/Graphics/SVG/1.1/DTD/svg11.dtd"><svg xmlns="http://www.w3.org/2000/svg" xmlns:xlink="http://www.w3.org/1999/xlink" width="32" height="32" viewBox="0 0 32 32" fill="#000"><path d="M27 6h-3a2 2 0 0 0-2-2h-2a2 2 0 0 0-2 2H5a1 1 0 0 0 0 2h13a2 2 0 0 0 2 2h2a2 2 0 0 0 2-2h3a1 1 0 0 0 0-2zm-5 2h-2V6h2v2zm5 6H14a2 2 0 0 0-2-2h-2a2 2 0 0 0-2 2H5a1 1 0 0 0 0 2h3a2 2 0 0 0 2 2h2a2 2 0 0 0 2-2h13a1 1 0 0 0 0-2zm-15 2h-2v-2h2v2zm15 6h-7a2 2 0 0 0-2-2h-2a2 2 0 0 0-2 2H5a1 1 0 0 0 0 2h9a2 2 0 0 0 2 2h2a2 2 0 0 0 2-2h7a1 1 0 0 0 0-2zm-9 2h-2v-2h2v2z"/><metadata><rdf:RDF xmlns:rdf="http://www.w3.org/1999/02/22-rdf-syntax-ns#" xmlns:rdfs="http://www.w3.org/2000/01/rdf-schema#" xmlns:dc="http://purl.org/dc/elements/1.1/"><rdf:Description about="https://iconscout.com/legal#licenses" dc:title="adjust,horiz" dc:description="adjust,horiz" dc:publisher="Iconscout" dc:date="2017-09-25" dc:format="image/svg+xml" dc:language="en"><dc:creator><rdf:Bag><rdf:li>Elegant Themes</rdf:li></rdf:Bag></dc:creator></rdf:Description></rdf:RDF></metadata></svg>